<?xml version="1.0" encoding="UTF-8"?>
<svg width="351px" height="292px" viewBox="0 0 351 292" version="1.1" xmlns="http://www.w3.org/2000/svg" xmlns:xlink="http://www.w3.org/1999/xlink">
    <!-- Generator: Sketch 51.3 (57544) - http://www.bohemiancoding.com/sketch -->
    <title>Group 264</title>
    <desc>Created with Sketch.</desc>
    <defs>
        <polygon id="path-1" points="0.132792118 0.255802367 37.8708251 0.255802367 37.8708251 4.4447929 0.132792118 4.4447929"></polygon>
        <polygon id="path-3" points="0.41929803 0.0437945421 5.45470083 0.0437945421 5.45470083 5.1789451 0.41929803 5.1789451"></polygon>
        <polygon id="path-5" points="0.178093596 0.0069112426 63.8732682 0.0069112426 63.8732682 100.852437 0.178093596 100.852437"></polygon>
        <polygon id="path-7" points="0.306476601 0.217660947 84.1682438 0.217660947 84.1682438 94.9518343 0.306476601 94.9518343"></polygon>
        <polygon id="path-9" points="0.34909803 0.374502959 39.560553 0.374502959 39.560553 9.52490178 0.34909803 9.52490178"></polygon>
    </defs>
    <g id="Graveyard" stroke="none" stroke-width="1" fill="none" fill-rule="evenodd">
        <g id="signup" transform="translate(-546.000000, -224.000000)">
            <g id="Group-2" transform="translate(533.000000, 105.000000)">
                <g id="Group-264" transform="translate(13.000000, 119.000000)">
                    <g id="Group-263">
                        <path d="M307.19533,48.6008947 L303.291103,49.7153325 L303.411705,48.807368 C303.776106,46.0735396 303.552624,42.7289302 302.956961,40.0287941 L303.125977,39.8754509 L306.83871,37.1377349 L307.19533,48.6008947 Z" id="Fill-4" fill="#ECE0E0"></path>
                        <polygon id="Fill-6" fill="#9EB79C" points="329.008251 48.7915154 306.906922 48.0779296 303.200241 49.6688112 327.132216 50.4947047"></polygon>
                        <path d="M303.156409,49.419229 C303.809995,49.2961225 304.44802,48.9190278 305.079993,48.6296195 C305.673494,48.3579213 306.265698,48.086655 306.856174,47.8162527 C306.949975,47.7734893 306.997092,48.0749923 306.903723,48.1186195 C306.265698,48.4106195 305.625945,48.7039154 304.985326,48.9972112 C304.385341,49.2719331 303.784492,49.6161994 303.16419,49.7332586 C303.06693,49.7518325 303.059581,49.437371 303.156409,49.419229" id="Fill-8" fill="#B1C1BB"></path>
                        <path d="M306.810916,37.5535757 C305.472188,38.2874633 304.160693,39.2131379 302.884643,40.3336231 C302.75237,40.4498183 302.62831,40.0398953 302.757125,39.9180846 C303.973521,38.7708183 305.206776,37.8136112 306.739592,37.0935462 C306.884401,37.0257296 306.950537,37.4771201 306.810916,37.5535757" id="Fill-10" fill="#5D66D3"></path>
                        <path d="M328.916567,37.9664793 L306.657029,37.1310828 L306.814374,39.5988284 C306.941892,41.5948817 306.990306,43.5935266 306.959615,45.5757574 L306.906879,48.0780592 L329.00864,48.791645 L329.027659,48.6447811 C329.478945,45.187 329.441338,41.473503 328.916567,37.9664793" id="Fill-12" fill="#5D66D3"></path>
                        <path d="M310.002076,37.5058018 C309.961011,37.1904763 309.472983,37.2090503 309.51448,37.5273994 C309.946746,40.8491154 309.934643,44.1945888 309.46866,47.5106893 C309.424569,47.8260148 309.900061,47.9391864 309.944585,47.6225651 C310.417051,44.2637012 310.439962,40.871145 310.002076,37.5058018" id="Fill-14" fill="#353A85"></path>
                        <path d="M326.236042,38.2355426 C326.192383,37.9206491 325.704355,37.9435426 325.748446,38.2614598 C326.209242,41.5792882 326.226965,44.9247615 325.789079,48.2451817 C325.747582,48.5609391 326.224371,48.6697911 326.266301,48.3523059 C326.709374,44.9895544 326.70289,41.5965663 326.236042,38.2355426" id="Fill-16" fill="#353A85"></path>
                        <path d="M295.489609,62.4238982 L286.805817,63.9426438 L287.081171,62.7245373 C287.910257,59.0568272 287.437358,54.5735905 286.134076,50.9564189 L286.511444,50.7495136 L294.780261,47.0550225 L295.489609,62.4238982 Z" id="Fill-18" fill="#FFFFFF"></path>
                        <polygon id="Fill-20" fill="#D67086" points="343.957565 62.5408278 294.852579 61.7244373 286.604943 63.8811769 339.777121 64.8366562"></polygon>
                        <path d="M286.509024,63.546932 C287.962302,63.3776065 289.382728,62.8679024 290.789754,62.4756893 C292.109894,62.1076657 293.427441,61.7405059 294.741962,61.3742101 C294.950314,61.3158964 295.053194,61.7202041 294.844841,61.7785178 C293.424848,62.1746183 292.001828,62.5715828 290.576215,62.9694112 C289.240945,63.3417544 287.903082,63.8069675 286.524585,63.9680858 C286.307588,63.993571 286.293755,63.5719852 286.509024,63.546932" id="Fill-22" fill="#D67086"></path>
                        <path d="M294.715551,47.6129757 C291.735076,48.605603 288.814687,49.8548101 285.971242,51.3657805 C285.676868,51.5225793 285.394166,50.9675201 285.691565,50.8094254 C288.577806,49.2772893 291.535802,48.0021651 294.561232,46.9961473 C294.872463,46.8929107 295.02635,47.5097391 294.715551,47.6129757" id="Fill-24" fill="#D67086"></path>
                        <path d="M343.832295,48.0260953 L294.376741,47.0472905 L294.708721,50.355616 C294.977158,53.0311308 295.070095,55.7105331 294.988397,58.3692018 L294.852665,61.7246101 L343.957652,62.5410006 L344.001311,62.3435982 C345.029672,57.7044266 344.973477,52.7257402 343.832295,48.0260953" id="Fill-26" fill="#D67086"></path>
                        <path d="M291.189946,96.8623178 L282.756004,95.673584 L283.068964,96.6333828 C284.009143,99.5188266 283.734654,103.03233 282.637563,105.847797 L283.004557,106.011507 L291.06675,108.963472 L291.189946,96.8623178 Z" id="Fill-28" fill="#FFFFFF"></path>
                        <polygon id="Fill-30" fill="#D67086" points="340.386054 96.7187367 290.597223 97.4176361 282.567017 95.7226538 335.930256 94.8254882"></polygon>
                        <path d="M282.488258,95.986145 C283.887071,96.1174586 285.271187,96.5178787 286.640605,96.8258609 C287.928326,97.1157012 289.215614,97.4051095 290.503334,97.6949497 C290.707364,97.7411686 290.792088,97.4206598 290.587626,97.3744408 C289.197027,97.0612751 287.806427,96.7485414 286.416259,96.4358077 C285.116435,96.1433757 283.813586,95.7783757 282.485665,95.6539734 C282.277312,95.6345355 282.281203,95.9667071 282.488258,95.986145" id="Fill-32" fill="#D67086"></path>
                        <path d="M290.983668,108.526811 C288.080138,107.724243 285.235827,106.726 282.465867,105.527763 C282.179707,105.403361 281.933747,105.834018 282.222501,105.958852 C285.03223,107.173935 287.911986,108.193775 290.857015,109.007574 C291.16133,109.091373 291.287119,108.610609 290.983668,108.526811" id="Fill-34" fill="#D67086"></path>
                        <path d="M340.469697,108.667843 L290.678273,108.965891 L290.876683,106.378926 C291.037918,104.279636 291.029705,102.170411 290.852476,100.072417 L290.597439,97.4172041 L340.38627,96.7187367 L340.435548,96.8820148 C341.594021,100.721642 341.605692,104.824328 340.469697,108.667843" id="Fill-36" fill="#D67086"></path>
                        <path d="M342.046906,87.2490385 L283.710015,87.5980562 C283.641717,87.5984882 283.585522,87.5419024 283.584658,87.472358 L283.528895,79.4808018 C283.528463,79.4108254 283.583361,79.3538077 283.652091,79.3533757 L341.988983,79.004358 C342.058145,79.003926 342.113908,79.0600799 342.11434,79.1300562 L342.170102,87.1211805 C342.170534,87.1911568 342.115204,87.2486065 342.046906,87.2490385" id="Fill-38" fill="#5D66D3"></path>
                        <path d="M332.688693,79.0833621 L295.503442,79.3511728 L295.369872,63.0661254 L332.554691,62.7974509 L332.696906,63.7036876 C333.45121,68.4949065 333.491411,73.3742438 332.816644,78.1753976 L332.688693,79.0833621 Z" id="Fill-40" fill="#DDDAE8"></path>
                        <polygon id="Fill-42" fill="#474EBB" points="307.002971 79.1604225 299.624623 79.2135527 299.492349 63.1444817 306.870698 63.0909195"></polygon>
                        <polygon id="Fill-44" fill="#DDDAE8" points="305.350721 79.1723444 301.207883 79.2021491 301.07561 63.1330781 305.218448 63.1028414"></polygon>
                        <g id="Group-48" transform="translate(295.237685, 62.633136)">
                            <mask id="mask-2" fill="white">
                                <use xlink:href="#path-1"></use>
                            </mask>
                            <g id="Clip-47"></g>
                            <polygon id="Fill-46" fill="#000100" mask="url(#mask-2)" points="0.132792118 0.523613018 37.3180433 0.255802367 37.8709116 4.44487929 0.14014064 1.40566036"></polygon>
                        </g>
                        <g id="Group-51" transform="translate(310.799261, 39.739645)">
                            <mask id="mask-4" fill="white">
                                <use xlink:href="#path-3"></use>
                            </mask>
                            <g id="Clip-50"></g>
                            <path d="M5.4546351,2.59625148 C5.46457722,4.01435207 4.34544052,5.17068935 2.95484076,5.17889645 C1.56467328,5.1875355 0.429110468,4.04458876 0.41916835,2.62648817 C0.409226232,1.20838757 1.52836293,0.0520502959 2.91896268,0.0438431953 C4.30913017,0.035204142 5.44469298,1.17815089 5.4546351,2.59625148" id="Fill-49" fill="#353A85" mask="url(#mask-4)"></path>
                        </g>
                        <path d="M289.403996,83.3546828 C288.897812,82.7244639 288.318576,82.1901385 287.660667,81.729245 C287.400875,81.5478249 287.15967,81.9802095 287.417301,82.1607657 C287.97795,82.5534107 288.46814,83.0117124 288.909916,83.5326473 C288.440475,84.0911621 287.937749,84.612097 287.393094,85.0967479 C287.15578,85.3075408 287.505051,85.6565586 287.740636,85.4466296 C288.343215,84.9110083 288.895651,84.3339195 289.406157,83.7067243 C289.497365,83.5948485 289.493907,83.4669905 289.403996,83.3546828" id="Fill-52" fill="#474EBB"></path>
                        <path d="M292.242816,83.2338225 C291.906513,82.7210947 291.283186,82.2839586 290.842707,81.8619408 C290.613606,81.6429408 290.269954,81.9962781 290.500352,82.216142 C290.872101,82.572071 291.405517,82.9431183 291.732742,83.365568 C291.548165,83.5957988 291.236069,83.8113432 291.041549,83.9962189 C290.781325,84.2428639 290.521533,84.4890769 290.262173,84.7357219 C290.031775,84.9547219 290.37975,85.3037396 290.609715,85.0856036 C290.921379,84.789716 291.233043,84.4938284 291.544707,84.1983728 C291.775104,83.9793728 292.090226,83.7685799 292.244545,83.4852189 C292.28561,83.4100592 292.29123,83.3076864 292.242816,83.2338225" id="Fill-54" fill="#474EBB"></path>
                        <path d="M293.754623,81.3055426 C293.52898,81.0822231 293.186193,81.4359923 293.411836,81.6597438 C293.547568,81.7936491 293.815141,82.259726 293.485754,82.3262467 C293.17798,82.3888799 293.311551,82.8679154 293.618459,82.8057142 C293.926233,82.7430811 294.113836,82.4584243 294.123778,82.1491462 C294.134585,81.8290692 293.975079,81.5236787 293.754623,81.3055426" id="Fill-56" fill="#474EBB"></path>
                        <path d="M296.046109,83.6254308 C295.857641,83.7990757 295.561538,83.8094426 295.394251,83.605129 C295.049303,83.1826793 295.54857,82.6565609 295.995101,82.8971586 C296.042218,82.9217799 296.088038,82.929555 296.1304,82.9260994 C296.24279,83.1563302 296.25057,83.4366675 296.046109,83.6254308 M296.483562,82.5563479 C296.414399,82.4569988 296.308926,82.4332414 296.216421,82.4561349 C295.806633,82.2475018 295.287482,82.3325964 294.990083,82.7010521 C294.69571,83.0647562 294.743259,83.6185195 295.0506,83.9593302 C295.391226,84.3368568 295.958791,84.3398805 296.339185,84.0215314 C296.771883,83.659555 296.798251,83.0064426 296.483562,82.5563479" id="Fill-58" fill="#474EBB"></path>
                        <polygon id="Fill-60" fill="#FFFFFF" points="333.972048 108.414546 333.409237 108.41757 333.330133 97.0805402 333.892943 97.0770846"></polygon>
                        <polygon id="Fill-62" fill="#FFFFFF" points="336.249917 108.400896 335.687106 108.40392 335.608002 97.0668905 336.170812 97.0634349"></polygon>
                        <path d="M339.082167,95.3654722 L280.745275,95.7144899 C280.676545,95.7149219 280.620783,95.658768 280.619918,95.5887917 L280.564156,87.5976675 C280.563723,87.5272592 280.618621,87.4702414 280.687351,87.4698095 L339.024675,87.1207917 C339.092973,87.1203598 339.149168,87.1769456 339.1496,87.2464899 L339.205363,95.2376142 C339.205795,95.3080225 339.150465,95.3650402 339.082167,95.3654722" id="Fill-64" fill="#353A85"></path>
                        <polygon id="Fill-66" fill="#BCBEC0" points="288.252309 93.2337426 287.369622 93.238926 287.34628 89.8658077 288.228967 89.8606243"></polygon>
                        <polygon id="Fill-68" fill="#BCBEC0" points="291.024172 93.2171556 290.141917 93.2223391 290.118142 89.8492207 291.000829 89.8440373"></polygon>
                        <path d="M342.266368,87.0964296 L283.76046,87.5279503 C283.588418,87.5301101 283.459171,87.3685598 283.495049,87.1970746 L342.11421,86.3029325 L342.266368,87.0964296 Z" id="Fill-70" fill="#353A85"></path>
                        <path d="M342.050537,86.7427899 L283.54463,87.1743107 C283.372588,87.1764704 283.24334,87.0149201 283.279218,86.8434349 L341.89838,85.9492929 L342.050537,86.7427899 Z" id="Fill-72" fill="#353A85"></path>
                        <path d="M292.722415,64.4009456 C292.722415,64.4009456 294.551333,74.7146793 292.517953,78.9979219 L295.503615,79.3516911 L295.370477,63.1564899 L292.722415,64.4009456 Z" id="Fill-74" fill="#FFFFFF"></path>
                        <path d="M262.088112,9.76640651 L161.949368,31.5242941 L59.4837366,33.1553473 C56.6005223,33.2011343 54.4487021,35.8360456 54.958776,38.6951402 L70.7637181,138.362602 C71.1691836,140.634241 73.1420457,142.280412 75.4330555,142.251904 C92.2979139,142.040679 158.093556,141.020407 165.482278,141.007448 C165.856189,141.006584 166.203298,141.186708 166.412083,141.49901 C167.011636,142.395312 168.99444,144.143856 174.890548,143.463099 C180.786224,142.782773 182.318175,140.628625 182.697272,139.619152 C182.829546,139.267543 183.12608,139.012691 183.490048,138.92846 C190.687277,137.257667 254.982524,123.260241 271.451426,119.623199 C273.688835,119.129478 275.234186,117.07727 275.110126,114.772371 L267.758145,14.1295604 C267.602097,11.2294302 264.905622,9.15432959 262.088112,9.76640651" id="Fill-76" fill="#292949"></path>
                        <path d="M261.896532,8.10913373 L161.757788,29.8665893 L59.2921563,31.4980746 C56.408942,31.5438615 54.2571218,34.1787728 54.7671957,37.0378675 L70.5721378,136.705329 C70.9776033,138.976968 72.9504654,140.62314 75.2414752,140.594631 C92.1067659,140.383406 157.901975,139.363134 165.290698,139.350175 C165.664608,139.349311 166.011286,139.529436 166.220502,139.841737 C166.820055,140.738039 168.802859,142.486583 174.698536,141.805826 C180.594644,141.125501 182.126595,138.971353 182.505692,137.961879 C182.637965,137.61027 182.9345,137.355418 183.298468,137.271187 C190.495697,135.600394 254.790943,121.602968 271.259846,117.965927 C273.497255,117.471773 275.042606,115.419998 274.918545,113.115098 L267.566565,12.4722876 C267.410517,9.5721574 264.714042,7.4970568 261.896532,8.10913373" id="Fill-78" fill="#3B3387"></path>
                        <path d="M162.054841,29.0929621 C111.779278,3.29242959 66.3606565,22.843471 66.3606565,22.843471 L78.8838351,131.167696 C142.405758,110.471548 173.856568,134.52224 173.856568,134.52224 C173.856568,134.52224 198.99154,103.93956 265.562666,109.617578 L253.03992,1.29335266 C253.03992,1.29335266 205.11891,-7.48262959 162.054841,29.0929621" id="Fill-80" fill="#FFFFFF"></path>
                        <path d="M66.3604836,22.8435142 C66.3604836,22.8435142 65.2253531,31.3266325 58.5455464,37.1091828 L75.1804393,140.066828 C75.1804393,140.066828 79.4283174,135.877751 78.8836622,131.167739 L66.3604836,22.8435142 Z" id="Fill-82" fill="#BABCBE"></path>
                        <path d="M253.039704,1.29322308 C253.039704,1.29322308 256.080263,9.29428225 263.903413,13.402584 L271.198767,117.438383 C271.198767,117.438383 266.107538,114.32746 265.562883,109.617448 L253.039704,1.29322308 Z" id="Fill-84" fill="#BABCBE"></path>
                        <path d="M75.1803528,140.066698 C75.1803528,140.066698 138.346953,117.741225 170.376135,140.531479 L174.496494,140.055899 L173.856741,134.522154 C173.856741,134.522154 141.36244,110.114669 78.8835757,131.167609 L75.1803528,140.066698 Z" id="Fill-86" fill="#BABCBE"></path>
                        <path d="M271.199026,117.438296 C271.199026,117.438296 204.601963,110.092509 178.616724,139.58019 L174.496797,140.056202 L173.856611,134.522024 C173.856611,134.522024 199.926142,103.354048 265.56271,109.617362 L271.199026,117.438296 Z" id="Fill-88" fill="#BABCBE"></path>
                        <path d="M110.584711,11.0211426 C104.897387,11.1140124 99.2921941,11.5338704 93.971864,12.094113 C91.519619,12.3524207 71.4633406,15.4460657 71.5428776,16.1311426 C71.5433099,16.1333024 75.0835685,46.760042 75.0835685,46.760042 C75.0835685,46.760042 84.1270057,124.983214 84.143864,125.131373 C84.0643271,124.442409 104.16729,121.346604 106.626884,121.08916 C123.990145,119.27064 143.844555,120.193722 160.156977,126.883805 C162.882847,128.001699 173.916869,132.363557 174.368587,136.272728 L162.103903,30.1821308 C161.853621,28.0193438 160.805809,26.0241544 159.139855,24.6090775 C146.056892,13.5005509 127.940624,10.7382136 110.584711,11.0211426" id="Fill-90" fill="#FFFFFF"></path>
                        <g id="Group-94" transform="translate(162.532020, 35.420118)">
                            <mask id="mask-6" fill="white">
                                <use xlink:href="#path-5"></use>
                            </mask>
                            <g id="Clip-93"></g>
                            <path d="M0.178007143,0.00660887574 C2.64970419,21.385674 11.8366537,100.852437 11.8366537,100.852437 C11.3845034,96.9436976 21.1329665,90.1827746 23.5316106,88.4731059 C35.043719,80.2694609 49.618432,75.1633485 63.8732682,72.3331947 L63.8732682,72.3288751 C17.2953089,58.1992716 3.13340985,12.086597 0.178007143,0.00660887574" id="Fill-92" fill="#E6E6E6" mask="url(#mask-6)"></path>
                        </g>
                        <polygon id="Fill-95" fill="#EFBFA5" points="216.440173 138.645142 213.996141 136.340243 213.957237 133.379639 213.324832 133.069065 212.911153 133.831462 212.175004 131.382722 210.44594 130.233728 207.863583 131.21426 206.382208 133.652633 207.628431 136.112604 210.376778 137.903479 213.585056 141.202734"></polygon>
                        <polygon id="Fill-97" fill="#292949" points="216.204761 135.867384 211.808616 141.070254 228.630248 165.458301 233.019044 166.873378 251.713685 151.975763 246.713664 141.775633 232.770924 153.616319"></polygon>
                        <polygon id="Fill-99" fill="#151525" points="280.556937 282.889341 281.209658 285.881909 276.036731 290.143122 272.470969 287.785092 274.730856 284.158418 279.904215 279.896773"></polygon>
                        <polygon id="Fill-101" fill="#292949" points="262.465005 190.875908 268.237485 204.17789 268.781708 241.603133 280.651733 281.858529 275.13256 284.304245 250.910967 237.561783 248.154406 222.756606 247.058612 191.576103"></polygon>
                        <polygon id="Fill-103" fill="#292949" points="234.516198 193.857072 234.061886 233.078374 241.45839 283.6488 247.146146 283.6488 250.738276 236.987114 258.520361 190.325427"></polygon>
                        <polygon id="Fill-105" fill="#151525" points="247.113207 282.972276 247.113207 286.045187 240.963359 289.117666 237.888218 286.045187 240.963359 282.972276"></polygon>
                        <path d="M245.715864,140.747758 L260.823129,140.188811 C260.823129,140.188811 269.860947,148.112551 274.531149,168.703302 C279.286939,189.670717 273.652784,219.854273 273.652784,219.854273 C273.652784,219.854273 233.122226,214.456592 226.476569,213.622492 L236.615368,172.225012 L245.715864,140.747758 Z" id="Fill-107" fill="#292949"></path>
                        <path d="M251.129737,142.290131 C252.893814,142.117782 254.657892,141.945433 256.421969,141.773084 C256.441421,140.360599 256.347187,138.946386 256.140996,137.548587 C257.611998,137.034563 259.3121,136.2618 259.570163,134.726208 C259.651429,134.242421 259.568866,133.747836 259.485439,133.26448 C259.143084,131.265404 258.799865,129.266759 258.457078,127.268114 C258.338637,126.576989 258.212415,125.865563 257.837208,125.272924 C257.178435,124.232782 255.898495,123.77664 254.685125,123.56412 C251.589235,123.023315 248.214102,123.689386 245.810703,125.71222 C245.170517,126.250865 244.592145,126.898362 244.309443,127.684948 C243.873287,128.897871 244.196622,130.236924 244.522551,131.483972 C244.822975,132.634693 245.123833,133.785415 245.42469,134.936569 C245.770503,136.260072 246.270634,137.765427 247.545819,138.263469 C248.22318,138.527824 249.022872,138.4518 249.635825,138.842285 C250.71649,139.531682 250.568655,141.138546 251.129737,142.290131" id="Fill-109" fill="#EFBFA5"></path>
                        <path d="M233.893994,122.314437 C233.859845,120.944283 234.052203,119.557715 234.32626,118.308508 C234.796998,116.161272 237.331806,115.196721 239.52642,115.044242 C244.265352,114.715958 248.838294,112.568721 253.466134,114.225692 C256.112035,115.172964 259.664397,115.400603 262.058718,116.736201 C263.058117,117.29342 263.855216,118.163804 264.476382,119.125331 C266.627338,122.455254 266.632957,127.043023 264.490214,130.378562 C264.009535,131.126704 263.434189,131.810485 262.830313,132.463165 C261.579767,133.815177 260.084127,135.484674 258.365437,135.983579 C258.326966,134.447988 259.733127,129.607958 258.55477,128.348384 C256.684787,126.348443 252.449445,127.039567 250.126015,127.528106 C247.590775,128.061136 245.329591,129.851147 242.816829,130.230834 C241.00866,130.50426 238.702953,129.615301 237.16668,128.679692 C234.759391,127.21278 233.95624,124.789958 233.893994,122.314437" id="Fill-111" fill="#151525"></path>
                        <path d="M249.882692,142.614269 L234.000807,206.09576 L232.698822,214.420783 L252.486231,217.022434 C252.486231,217.022434 251.705126,186.623766 251.96535,182.570754 C252.226006,178.517742 255.930526,169.756446 255.610649,160.305754 C255.42953,154.962499 257.429625,145.077263 256.391754,141.83373 L249.882692,142.614269 Z" id="Fill-113" fill="#FFFFFF"></path>
                        <polygon id="Fill-115" fill="#474EBB" points="327.618775 198.244286 327.580735 206.110144 316.919759 240.144126 319.371572 275.553014 312.805451 276.832025 302.520546 233.5197 302.983503 220.793079 307.956291 194.857345"></polygon>
                        <polygon id="Fill-117" fill="#474EBB" points="319.247987 207.517186 329.443413 279.671423 334.236811 279.694749 337.455463 240.380577 344.206162 201.083251"></polygon>
                        <polygon id="Fill-119" fill="#292949" points="313.887024 277.736362 308.85415 283.007912 310.287545 285.699409 320.643341 280.793722 318.759526 276.861225"></polygon>
                        <polygon id="Fill-121" fill="#292949" points="329.523987 281.352885 323.332641 285.200288 324.047609 288.164779 335.302087 285.999832 334.460897 281.721773"></polygon>
                        <path d="M313.53866,119.345324 C317.788268,119.678792 321.780676,116.208916 325.960689,117.095283 C328.678345,117.671508 330.814604,120.093466 331.631587,122.8152 C332.012413,124.083413 332.142957,125.46523 331.758241,126.723076 C331.508391,127.539034 331.051486,128.273786 330.514611,128.925602 C329.796617,129.797283 328.920846,130.520372 327.949545,131.074135 C328.477342,131.934153 329.083378,132.745792 329.757281,133.496093 C327.793064,134.236892 325.828848,134.977259 323.864631,135.718058 C323.436688,134.59023 323.008744,133.462401 322.581233,132.334573 C321.991622,132.299153 321.404173,132.21233 320.829691,132.059851 C317.352543,131.140656 314.481433,128.080271 313.722806,124.484697 C313.367051,122.800514 313.445723,121.060608 313.53866,119.345324" id="Fill-123" fill="#EFBFA5"></path>
                        <polygon id="Fill-125" fill="#292949" points="314.605839 120.632327 327.759261 119.135179 330.261649 129.181966 333.988214 126.256351 332.155407 109.827895 313.605143 109.338925 305.549001 114.008765 305.866285 118.729576 313.025474 123.595954"></polygon>
                        <path d="M319.627776,137.251188 L335.271915,131.13733 C335.271915,131.13733 342.491189,146.574886 348.692045,168.668833 C354.893333,190.761915 346.398874,221.360578 346.398874,221.360578 C346.398874,221.360578 302.902539,212.267543 295.76626,210.831732 L310.072103,166.77472 L319.627776,137.251188 Z" id="Fill-127" fill="#5D66D3"></path>
                        <polygon id="Fill-129" fill="#EFBFA5" points="296.192344 109.016947 295.827944 103.109563 298.347623 102.843912 299.493992 106.834291 300.626961 106.155693 300.322646 111.248847 297.740289 111.878202"></polygon>
                        <polygon id="Fill-131" fill="#5D66D3" points="331.092162 142.535092 309.258838 134.818257 301.004286 109.558962 295.944613 111.0695 299.075948 143.050843 323.664967 158.492719"></polygon>
                        <polygon id="Fill-133" fill="#151525" points="112.735451 285.666235 112.651159 286.544395 112.371051 289.457915 106.467594 291.98527 103.936244 288.877803 107.02781 286.157365 107.313106 286.035122 107.347687 286.397963"></polygon>
                        <path d="M102.06423,234.522392 L102.639576,236.845865 L107.312803,286.035338 L107.347385,286.397747 L112.735581,285.666019 L113.035573,285.625415 L117.01804,234.694741 C111.729265,234.652841 106.480691,234.586753 102.06423,234.522392" id="Fill-135" fill="#5D66D3"></path>
                        <path d="M136.64175,234.66878 L135.555033,247.543993 L124.65631,280.926159 L119.331657,280.219053 L119.245204,280.871301 L119.214945,280.867414 L123.138624,246.465408 L119.77862,234.713704 C125.959592,234.751715 132.0044,234.750851 136.64175,234.66878" id="Fill-137" fill="#5D66D3"></path>
                        <polygon id="Fill-139" fill="#151525" points="124.656613 280.926159 124.991619 280.97065 127.427005 284.31094 124.203166 286.900064 118.937733 283.183544 119.245074 280.871733 124.448693 281.562857"></polygon>
                        <polygon id="Fill-141" fill="#292949" points="124.656613 280.926159 124.448693 281.562857 119.245074 280.871733 119.33196 280.219053"></polygon>
                        <path d="M99.710714,159.803868 C99.0264369,163.025371 96.475203,165.388152 93.9840539,167.625235 C95.822049,162.914359 97.7292067,158.76243 99.5628791,155.177223 C99.8922658,156.717566 100.039236,158.256614 99.710714,159.803868" id="Fill-143" fill="#D0CFD1"></path>
                        <path d="M150.616218,140.759723 C150.78437,140.032747 154.605601,136.145605 154.827786,136.681226 C155.069855,137.265226 155.173599,137.880327 155.300685,138.512273 C156.85641,137.678173 160.624041,134.419522 160.396237,138.185717 C160.29768,139.817202 157.433485,142.637853 155.999659,143.132439 C155.967239,143.14367 155.934387,143.154901 155.902399,143.166131 L150.63956,142.24996 C150.505126,141.837877 150.475299,141.370072 150.616218,140.759723" id="Fill-145" fill="#EFBFA5"></path>
                        <path d="M132.886828,175.885984 L132.842737,175.705428 C132.717379,175.797002 132.594184,175.890304 132.469691,175.982309 C132.594184,175.890304 132.717379,175.797002 132.842737,175.705428 L129.83503,163.471664 L125.449691,145.634611 L114.518548,140.428718 C113.353159,140.242114 112.301456,139.712108 111.398452,138.942801 L111.001632,138.754037 C111.128718,139.255102 111.282173,139.722907 111.466318,140.141469 C111.541532,140.312954 111.621934,140.476233 111.70709,140.631304 C112.618739,142.292162 114.029223,143.851511 113.993777,145.745623 C113.986861,146.096801 113.927641,146.441067 113.840755,146.779718 C113.681249,147.396114 113.424915,147.996528 113.196679,148.593487 C110.77037,154.944055 113.438315,162.113605 117.384472,167.479321 C119.405748,170.227404 122.074558,172.610487 123.226115,175.821191 C123.42366,176.372363 123.547721,176.960682 123.603051,177.560233 C124.315425,178.180517 125.089613,178.74767 125.952849,179.002954 C125.089613,178.74767 124.314993,178.180517 123.603051,177.560233 C123.871056,180.453451 122.507689,183.604114 119.720005,184.075807 C119.063825,184.186386 118.367012,184.143191 117.763137,184.423528 C115.702957,185.379872 116.593857,188.75515 115.069255,190.438469 C114.083689,191.525262 112.417735,191.563274 110.950625,191.521375 C110.470809,191.507552 109.963329,191.485954 109.560889,191.223759 C108.703706,190.664812 108.786701,189.420357 108.533825,188.429457 C108.075623,186.634262 106.282152,185.455463 104.470525,185.058499 C102.659762,184.661966 100.779838,184.872327 98.9254164,184.875783 C96.6089028,184.879238 94.2405174,184.536268 92.1976282,183.444292 C91.3957748,183.016227 90.6514127,182.45728 90.0172784,181.801144 C86.3646307,204.124457 90.4785063,234.327883 90.4785063,234.327883 C90.4785063,234.327883 95.2935174,234.423777 102.0641,234.522262 C106.480994,234.587055 111.729568,234.652712 117.01791,234.694611 C117.937772,234.701522 118.860228,234.708434 119.778361,234.714049 C125.959765,234.752061 132.004573,234.750333 136.641923,234.669126 C140.145439,234.606925 142.845804,234.499369 144.192313,234.327883 L132.886828,175.885984 Z" id="Fill-147" fill="#8CABEF"></path>
                        <path d="M155.902097,143.165959 L150.63969,142.249787 L150.572257,142.238124 L126.798923,152.62529 L129.806198,164.859053 C139.186802,157.993166 150.284367,152.408882 157.269354,143.403964 L155.902097,143.165959 Z" id="Fill-149" fill="#8CABEF"></path>
                        <path d="M110.946518,138.526398 C109.921183,134.090244 111.032107,127.081812 114.000477,124.466771 C115.167163,123.438292 116.500704,123.25212 117.988131,123.240889 C118.690564,123.235706 118.925716,123.417558 119.287955,123.353197 C120.394556,124.775617 121.135892,126.510771 120.999729,128.151759 C120.885178,129.533144 120.088944,130.585812 120.024969,132.069138 C119.898747,134.769274 116.035153,137.479777 117.519555,140.160907 C116.459206,140.506469 115.452027,140.578173 114.518332,140.428718 L111.398236,138.943233 C111.243485,138.810623 111.092624,138.671966 110.946518,138.526398" id="Fill-151" fill="#EFBFA5"></path>
                        <path d="M114.518202,140.428675 C113.353245,140.241639 112.301542,139.712065 111.398106,138.943189 L114.518202,140.428675 Z" id="Fill-153" fill="#EFBFA5"></path>
                        <path d="M120.025271,132.069181 C120.088814,130.585856 120.885048,129.532755 121.000031,128.151802 C121.135763,126.510382 120.394426,124.77566 119.288258,123.353672 C119.45079,123.324731 119.63969,123.24698 119.907695,123.080246 C120.440247,122.748938 120.914875,121.882441 121.164292,121.175767 C122.543221,122.047447 123.546942,123.621483 123.82316,126.01882 C124.123585,128.624791 124.11883,131.374169 123.225769,133.981436 C122.33141,136.589134 120.423821,139.041329 117.949098,140.008471 C117.804721,140.065057 117.661641,140.114731 117.519425,140.16095 C116.035456,137.479388 119.898617,134.768885 120.025271,132.069181" id="Fill-155" fill="#EFBFA5"></path>
                        <polygon id="Fill-157" fill="#B97262" points="58.095082 99.2424633 55.7431227 93.9290136 53.4266091 94.8343864 54.2310562 98.8290846 52.9364195 98.7496053 55.5036473 103.051854 58.0384552 102.435025"></polygon>
                        <polygon id="Fill-159" fill="#353A85" points="40.555759 140.31114 58.3651186 127.62901 54.1457701 101.885927 59.2387282 100.920081 70.9617824 130.209495 45.7278218 152.553111"></polygon>
                        <polygon id="Fill-161" fill="#292949" points="10.3169793 284.987594 10.023903 287.867422 15.4950938 291.332979 18.6700877 288.745582 16.0808143 285.57289 10.6096234 282.107766"></polygon>
                        <polygon id="Fill-163" fill="#292949" points="10.1052554 197.134513 9.2152197 205.880691 17.0305892 244.966791 10.1095781 284.029134 15.7100165 285.752193 33.8189365 239.308211 34.8118515 225.109927 32.3591741 195.697407"></polygon>
                        <polygon id="Fill-165" fill="#292949" points="52.5494549 200.112006 52.7288453 237.061669 45.4417049 284.652917 40.0842 284.617065 36.9956594 240.638237 29.9592333 196.633491"></polygon>
                        <polygon id="Fill-167" fill="#292949" points="40.0998913 286.874752 45.8736683 289.808143 48.7901671 286.932634 45.9130046 284.019113 40.1193432 283.980237"></polygon>
                        <path d="M57.0641276,194.689402 C53.1996695,182.725609 52.7872877,170.16313 51.6633961,157.700431 C51.330119,154.023218 50.9760931,150.264798 49.4445746,146.90507 C47.6856842,143.046869 44.7773985,141.010644 41.3901621,139.898366 C37.0783086,138.481993 31.9901054,138.563633 27.5066424,138.29107 C23.2531448,138.156733 19.4898369,154.135958 15.1507507,161.882165 C12.4918825,166.628893 9.75174828,170.827473 7.9582766,176.005721 C6.23656108,180.975337 4.58357586,186.032638 3.58201552,191.203112 C2.06994901,199.010224 -1.79753498,204.461035 1.89617808,207.117112 C2.23464236,207.228556 2.56057094,207.339567 2.8700734,207.450147 C8.92871379,209.618982 15.1978677,211.22455 21.5815722,212.066425 C27.2442569,212.813272 32.9955562,212.949337 38.6820155,212.389094 C46.4658296,211.622378 54.0071424,210.523922 60.8685007,206.467455 C59.6006645,202.541437 58.3323961,198.61542 57.0641276,194.689402" id="Fill-169" fill="#353A85"></path>
                        <polygon id="Fill-171" fill="#EFBFA5" points="109.924468 206.300289 113.749158 210.676402 115.692194 209.124396 113.737054 205.547828 114.996678 205.240278 111.267086 201.89394 109.029678 203.235153"></polygon>
                        <polygon id="Fill-173" fill="#8CABEF" points="111.147349 158.831067 101.231599 179.274523 112.91013 202.603854 108.334162 205.037908 88.4360926 180.54792 98.7201333 149.366553"></polygon>
                        <path d="M240.336962,158.410043 C239.060481,157.54225 237.757631,156.744866 236.434897,156.008818 C235.270372,155.360889 233.800668,155.72157 233.050254,156.822617 C232.204309,158.064913 232.583407,159.780629 233.896199,160.513653 C235.091414,161.181451 236.268042,161.905836 237.42176,162.690262 C258.965466,177.341664 265.510405,207.866895 250.848807,229.394552 C236.187208,250.922641 205.8698,255.300913 184.326526,240.649511 C183.172808,239.865085 182.066639,239.037031 181.006723,238.170966 C179.842631,237.219807 178.105786,237.496688 177.259841,238.738552 C176.510292,239.840463 176.713457,241.338907 177.744412,242.183807 C178.914988,243.143173 180.135275,244.061937 181.410892,244.930162 C205.320389,261.189724 238.859909,256.199375 255.132131,232.307641 C271.404352,208.415907 264.246027,174.670469 240.336962,158.410043" id="Fill-175" fill="#BABCBE"></path>
                        <path d="M234.755025,167.481481 L233.007805,166.293179 L238.144855,158.751286 C238.472945,158.269227 239.129989,158.144824 239.612398,158.472244 C240.095239,158.80096 240.220164,159.457528 239.891642,159.939156 L234.755025,167.481481 Z" id="Fill-177" fill="#BABCBE"></path>
                        <path d="M184.794151,240.974253 L183.046932,239.785951 L188.183982,232.244057 C188.512071,231.761998 189.169116,231.637164 189.651525,231.965448 C190.134366,232.293732 190.259291,232.949868 189.930768,233.431927 L184.794151,240.974253 Z" id="Fill-179" fill="#BABCBE"></path>
                        <path d="M169.081196,206.442013 C166.903872,182.804699 184.315547,161.878753 207.970007,159.703007 C231.624468,157.528125 252.565595,174.926315 254.742486,198.563628 C256.919378,222.201806 239.508567,243.127321 215.853675,245.302634 C192.198782,247.47838 171.258087,230.079759 169.081196,206.442013" id="Fill-181" fill="#FFFFFF"></path>
                        <path d="M230.955968,163.912472 C235.83409,170.174058 239.035452,177.858064 239.817422,186.346366 C241.994745,209.984543 224.583503,230.909626 200.929042,233.085372 C192.713394,233.840857 184.826269,232.233561 177.93811,228.825454 C186.643947,240.000934 200.689135,246.646093 215.849136,245.252182 C239.503596,243.076869 256.915271,222.150922 254.737947,198.513176 C253.316657,183.085123 243.901471,170.317034 230.955968,163.912472" id="Fill-183" fill="#DBDBDB"></path>
                        <path d="M218.297404,159.991983 C219.078076,160.126983 219.853129,160.284983 220.621266,160.468483" id="Fill-185" fill="#8CABEF"></path>
                        <path d="M223.271878,161.039512 C222.122483,160.994589 220.933751,161.098257 219.639115,161.427405 C220.137517,161.004956 220.451342,160.667601 220.621223,160.403678 C219.853086,160.245151 219.078033,160.108654 218.297361,159.992027 C218.24376,160.014488 218.190159,160.037382 218.138719,160.060707 C217.137159,160.518577 216.988892,160.570411 217.218425,161.207973 C216.801288,161.083139 216.399713,160.931524 216.025371,160.746648 L211.066847,161.20279 C214.528001,164.385417 208.417489,164.716725 206.194345,164.927518 C205.787583,164.965962 205.618134,164.160802 205.830377,163.92582 C205.931095,163.81308 208.621951,163.668808 207.914331,163.734033 C210.006067,163.541814 209.730281,163.423891 209.538355,161.343175 C207.662752,163.011376 207.596183,161.522003 205.313819,161.731932 C203.172805,161.928902 202.133638,162.143151 200.33325,163.159104 C200.992456,163.623453 201.652094,164.088234 202.311299,164.552151 C201.52544,164.448914 198.923198,163.695157 198.263993,164.050222 C197.957084,164.21566 197.953193,165.074382 197.55767,165.110234 C195.963041,165.257098 191.703059,166.528334 191.534475,164.700311 C191.533611,164.692104 191.504649,164.687352 191.453642,164.68476 C187.670882,166.73092 184.245606,169.321772 181.271183,172.342849 C183.303266,171.813275 185.482319,171.733796 185.90983,171.694056 C186.100027,171.676778 187.722754,174.938885 187.759496,175.198056 C187.966119,176.667559 187.012541,177.343565 186.395265,178.815228 C185.270941,181.49463 184.978729,184.895825 185.395001,187.750601 C185.409698,187.853837 187.258068,189.231334 187.31383,189.839956 C187.54855,192.386749 187.819149,192.403163 189.742733,194.118447 L189.454844,190.994997 C190.750777,193.633796 192.109389,194.570269 193.298553,197.158962 C194.648087,200.097104 198.660813,197.376234 200.281378,199.243997 C200.995482,200.066435 202.138393,199.554139 202.781605,200.362322 L204.525798,202.554482 C205.577069,203.875393 206.656437,203.284914 208.303803,203.133731 C209.886761,202.988163 215.729268,209.552979 215.771631,210.013441 C215.945834,211.907553 210.568877,215.158429 210.622478,215.918666 C210.781119,218.172163 213.621107,218.22918 215.274525,219.473636 C216.59942,220.47879 216.019319,223.722754 216.110527,225.129624 C216.323202,228.408145 218.631502,230.565317 219.452808,233.603672 C219.759284,234.736683 219.430762,236.018719 219.789111,237.098601 C220.156537,238.207423 221.19484,238.823388 221.29599,240.077346 C221.452038,242.014222 226.929281,241.876861 227.98401,241.779672 C227.978823,241.777512 223.819991,240.085553 223.842901,240.332198 C223.673885,238.496399 224.630922,238.537003 224.528043,237.41695 C224.406576,236.086536 223.096378,235.102115 223.678208,233.150121 C224.306723,231.039601 224.22027,231.110009 226.427852,230.906559 C226.297308,229.974837 226.069504,229.067305 225.745304,228.183098 C227.435032,224.92963 231.751208,221.55176 232.889797,220.610967 C234.43558,219.332388 233.232151,216.376536 233.796259,214.690624 C234.2925,213.209027 236.073004,211.71879 236.002977,209.958151 C235.949808,208.61521 234.737302,208.397506 233.763406,208.52018 C232.791672,208.642855 232.544849,207.022169 231.807403,207.089985 C229.75803,207.278317 227.598861,207.125405 225.70251,205.974683 C225.388252,205.784192 224.818526,203.201115 224.25658,202.599405 C223.451268,201.738092 221.30161,203.578642 220.290972,202.398979 C219.909713,201.953204 218.938411,200.156713 218.392892,200.20682 C217.649826,200.275068 213.484511,199.856074 212.695626,200.713068 C212.817092,200.581322 211.245805,200.25779 211.028376,200.278092 C211.121745,200.269453 206.024897,203.531991 205.892191,202.093589 C205.720581,200.228417 206.408317,197.734754 204.195547,197.938204 C200.637133,198.265624 203.579135,197.062636 203.429139,195.433743 C203.236781,193.34482 200.036283,196.324429 198.221198,196.493322 C198.269612,196.489003 195.861458,193.253246 196.864315,193.160808 C197.58447,193.094287 197.561993,191.618305 198.038782,190.945322 C199.292353,189.174317 201.676733,188.78124 203.394126,188.935015 C204.090074,188.997216 206.834099,191.64379 206.895913,192.235565 C206.881216,192.094749 207.83393,191.354814 207.951074,191.13279 C208.371236,190.338429 208.065192,190.040814 208.117929,189.279713 C208.296454,186.724281 208.354378,186.216305 210.223496,184.501021 C211.596805,183.241015 213.542435,181.759849 214.567337,180.19834 C215.349307,179.006583 216.123927,178.35347 217.350266,177.604464 C217.224909,177.681352 218.646632,178.315459 218.930198,178.289109 C220.092129,178.182417 220.281894,177.175104 220.837356,176.236038 L218.819538,176.421346 C220.937209,174.471512 216.731261,173.948417 221.297287,173.528127 C223.539883,173.322086 223.749964,173.333317 224.974574,171.615009 C222.79336,171.815435 223.322453,171.75237 223.118424,169.532565 C223.083842,169.163246 222.342506,167.864364 221.807361,168.496743 C220.343708,170.225417 220.22959,168.349879 219.428601,167.363299 C218.392459,166.087743 217.538302,167.577115 217.234419,168.436269 C216.85705,169.501464 213.133079,171.455186 213.26492,172.789056 C213.341863,173.570027 212.060627,173.656417 212.003568,172.782577 C211.918411,171.470737 207.279333,170.637068 207.157433,170.132979 C206.996631,169.468204 209.167038,167.435435 211.20085,167.248399 C212.134544,167.162441 211.577786,166.123163 211.865675,166.096814 C213.802659,165.918417 216.031422,165.106778 216.94653,163.448512 C216.681983,163.472701 214.196885,163.719346 214.194292,163.688678 C214.112594,162.801447 213.682921,162.294766 214.700908,162.201464 C217.090042,161.981601 217.969703,163.778524 220.592693,163.537494 C219.718219,164.30421 218.842881,165.071358 217.968406,165.838074 C219.284656,165.717127 221.45809,167.720524 222.407346,166.949488 C224.161049,165.526636 222.795953,164.498157 224.326175,164.097305 C224.508591,164.256695 224.748067,164.403991 225.131919,164.500749 C225.633347,164.627743 227.411257,164.779358 227.749289,165.19576 C228.156484,165.696825 229.358183,168.778376 228.714972,169.115299 C227.670617,169.662151 224.808584,173.396814 227.319617,174.032648 C229.260059,174.523778 229.665092,173.642163 231.241567,172.44263 C232.706084,171.32776 233.162124,171.645678 234.969861,172.103115 C234.985855,172.107435 236.782352,171.87634 237.479165,172.052577 C239.003335,172.438311 238.810112,171.516524 238.97005,171.557127 C239.605482,171.718246 240.807613,171.765328 241.549382,171.356701 C236.449075,166.514512 230.182515,162.931033 223.271878,161.039512" id="Fill-187" fill="#8CABEF"></path>
                        <path d="M208.239482,192.471022 C207.976664,192.787644 207.714279,193.104265 207.451461,193.420454 C210.150098,193.172514 211.872678,193.891283 214.266567,193.670987 C212.428139,191.303454 211.240705,192.195005 208.239482,192.471022" id="Fill-189" fill="#8CABEF"></path>
                        <path d="M217.34456,193.829946 C215.172856,193.963419 215.102396,194.301638 213.912368,195.904614 C215.05355,195.79965 216.194733,195.697709 217.336779,195.594472 C218.326236,195.504626 218.029269,193.787614 217.34456,193.829946" id="Fill-191" fill="#8CABEF"></path>
                        <path d="M220.624335,195.803105 C220.345091,192.76907 217.535795,196.086898 220.624335,195.803105" id="Fill-193" fill="#8CABEF"></path>
                        <path d="M175.318362,210.422025 C173.297086,188.475806 189.462106,169.047871 211.424245,167.02806 C224.261249,165.847534 236.235882,170.878054 244.375018,179.642806 C236.411382,168.362362 222.802351,161.526279 208.057325,162.882179 C186.095618,164.901989 169.930598,184.330356 171.951874,206.276143 C172.791335,215.394664 176.640231,223.511054 182.426112,229.741108 C178.528369,224.219889 175.982755,217.633907 175.318362,210.422025" id="Fill-195" fill="#EDEFEF"></path>
                        <path d="M219.875261,163.550562 C220.064162,163.596062 220.252197,163.643562 220.440233,163.692562 C220.490808,163.640562 220.541816,163.589062 220.592823,163.537062 C220.336489,163.565062 220.101337,163.564062 219.875261,163.550562" id="Fill-197" fill="#92DDB6"></path>
                        <path d="M217.96832,165.838247 C219.28457,165.7173 221.458003,167.720696 222.407692,166.949661 C223.714432,165.888785 223.290379,165.048205 223.621927,164.522519 C222.578005,164.195963 221.516359,163.911738 220.440017,163.671572 C219.616118,164.393365 218.792219,165.116022 217.96832,165.838247" id="Fill-199" fill="#93B9F9"></path>
                        <path d="M219.875261,163.58758 C219.447318,163.48458 219.017213,163.38908 218.584947,163.30208 C218.971825,163.45258 219.394582,163.55908 219.875261,163.58758" id="Fill-201" fill="#92DDB6"></path>
                        <path d="M237.357871,172.028388 C234.620331,169.736879 231.575449,167.814257 228.306653,166.318837 C228.741945,167.40995 229.149572,168.888092 228.715145,169.115299 C228.672783,169.137328 228.626098,169.166701 228.578549,169.199098 C230.737285,169.975317 232.815188,170.934251 234.791508,172.056896 C234.850728,172.072447 234.907787,172.087133 234.969601,172.103115 C234.985163,172.107003 236.595354,171.90053 237.357871,172.028388" id="Fill-203" fill="#93B9F9"></path>
                        <path d="M211.674311,167.008752 C211.893902,166.675285 211.655291,166.115906 211.865805,166.096468 C213.802789,165.918504 216.03112,165.106864 216.946659,163.448598 C216.682112,163.472788 214.197015,163.719433 214.193989,163.688764 C214.15984,163.319444 214.066903,163.017078 214.041832,162.782095 C213.395594,162.744947 212.74633,162.719462 212.093176,162.714279 C212.365936,164.506018 207.999617,164.756551 206.194475,164.927604 C205.787712,164.96648 205.618264,164.160456 205.830074,163.925474 C205.931225,163.813598 208.62208,163.669326 207.914029,163.734119 C209.359094,163.601078 209.673784,163.503024 209.6673,162.769569 C209.132154,162.797214 208.595712,162.832634 208.057109,162.882308 C205.827048,163.087486 203.65837,163.474947 201.560583,164.023527 C201.810865,164.199764 202.061147,164.376001 202.311429,164.552237 C202.003223,164.511634 201.415342,164.370817 200.775588,164.23648 C195.301803,165.788486 190.344144,168.461841 186.138196,171.974048 C186.638328,172.765385 187.729367,174.986054 187.759626,175.198575 C187.966249,176.667214 187.01267,177.343651 186.395394,178.815314 C186.353032,178.915095 186.320612,179.02222 186.281276,179.12416 C192.700426,172.438397 201.466349,167.943498 211.424461,167.027758 C211.507456,167.020415 211.590883,167.016095 211.674311,167.008752" id="Fill-205" fill="#93B9F9"></path>
                        <path d="M219.788895,237.098428 C220.156753,238.207682 221.195056,238.823647 221.295774,240.077173 C221.451822,242.014049 226.929929,241.876688 227.983794,241.779931 C227.978607,241.777339 223.820208,240.085812 223.842685,240.332025 C223.673669,238.495795 224.630706,238.53683 224.528259,237.416777 C224.40636,236.086363 223.096594,235.101943 223.677992,233.149949 C224.306939,231.039428 224.220054,231.109836 226.427636,230.906818 C226.297092,229.975096 226.069288,229.067132 225.745088,228.182925 C227.434816,224.929889 231.750992,221.551588 232.889581,220.611227 C234.435796,219.332647 233.231935,216.376795 233.796042,214.690451 C234.292284,213.208854 236.072788,211.718185 236.003193,209.95841 C235.987199,209.563605 235.870055,209.268582 235.690232,209.048718 C231.69912,217.249339 225.155477,224.053457 216.996456,228.341883 C217.800471,230.083517 218.928685,231.664031 219.453024,233.603931 C219.759068,234.736511 219.430978,236.018546 219.788895,237.098428" id="Fill-207" fill="#7794C6"></path>
                        <polygon id="Fill-209" fill="#BABCBE" points="221.143227 269.601224 215.091503 270.158011 213.581166 253.758928 219.63289 253.202141"></polygon>
                        <path d="M217.202215,262.417117 C217.202215,262.417117 210.439413,262.639141 198.070986,269.375875 L198.326887,272.152034 L217.932744,270.349064 L237.538602,268.546093 L237.283132,265.769934 C223.891964,261.402028 217.202215,262.417117 217.202215,262.417117" id="Fill-211" fill="#BABCBE"></path>
                        <g id="Group-215" transform="translate(176.796798, 156.366864)">
                            <mask id="mask-8" fill="white">
                                <use xlink:href="#path-7"></use>
                            </mask>
                            <g id="Clip-214"></g>
                            <path d="M4.88123424,85.8021698 C27.6754855,101.304087 60.554935,96.9085367 76.0680975,74.1308089 C91.5812601,51.353513 83.8532084,18.8188385 61.0589571,3.31735325 C59.8382379,2.48714024 58.5933118,1.72085621 57.3285015,1.01461361 C56.9649658,0.811163905 56.6736185,0.534714201 56.4514337,0.217660947 C56.383568,0.294980473 56.3126764,0.368844379 56.2534559,0.455666864 C55.4075113,1.69796272 55.7866086,3.41411065 57.0994005,4.14670237 C58.294616,4.81450118 59.4712441,5.5388858 60.6249621,6.32331183 C82.1686677,20.9747142 88.7140397,51.499945 74.0520089,73.0280337 C59.3899781,94.5556905 29.0730015,98.9339627 7.52972808,84.2825604 C6.3760101,83.4981343 5.26984138,82.6700811 4.20992512,81.804016 C3.04583276,80.8528562 1.3094202,81.1297379 0.463475616,82.3720337 C0.40122931,82.4631757 0.355841379,82.5603651 0.306130788,82.6562586 C0.683066749,82.7469686 1.04703473,82.9162941 1.36907291,83.1789213 C2.49037094,84.0959568 3.66051502,84.9723888 4.88123424,85.8021698" id="Fill-213" fill="#272525" mask="url(#mask-8)"></path>
                        </g>
                        <g id="Group-218" transform="translate(197.977833, 262.627219)">
                            <mask id="mask-10" fill="white">
                                <use xlink:href="#path-9"></use>
                            </mask>
                            <g id="Clip-217"></g>
                            <path d="M28.3746325,0.374416568 C28.3322704,0.441801183 24.2404404,6.87746391 0.34909803,9.52490178 L19.9549552,7.72193136 L39.5608123,5.91852899 L39.3053431,3.14280118 C34.9481017,1.72124497 31.3131768,0.876345562 28.3746325,0.374416568" id="Fill-216" fill="#272525" mask="url(#mask-10)"></path>
                        </g>
                        <polygon id="Fill-219" fill="#EFBFA5" points="287.299768 167.916328 281.424841 167.165162 281.636219 164.642127 285.773437 164.266328 285.31999 163.026624 290.268571 164.281446 290.403006 166.934067"></polygon>
                        <polygon id="Fill-221" fill="#5D66D3" points="326.796518 139.95262 315.113233 159.933454 288.735496 163.294909 289.270642 168.54443 321.294204 171.473501 341.088097 150.237412"></polygon>
                        <polygon id="Fill-223" fill="#EFBFA5" points="248.752403 181.999108 246.005785 184.495794 242.737854 184.289321 242.342763 184.959279 243.148507 185.478918 240.386759 186.084084 238.974546 187.890078 239.838646 190.816125 242.402416 192.651924 245.218629 191.486516 247.424482 188.611871 251.331734 185.35754"></polygon>
                        <path d="M246.121157,183.480964 C250.574793,180.011089 255.027998,176.541645 259.481202,173.071769 C260.679876,172.137888 262.042811,171.428189 263.236729,170.483941 C264.983084,169.10342 265.444744,168.690041 264.856862,166.690101 C263.153734,160.893728 259.539126,155.730598 257.893057,150.005497 C259.775143,148.901858 261.463142,147.557621 263.488308,146.657 C266.796008,145.186201 267.553338,147.577491 268.898982,150.009817 C270.495773,152.894828 272.007839,155.829947 273.409245,158.813876 C274.571176,161.287237 280.353599,171.670515 277.069674,174.137396 C274.719876,175.913586 249.026417,189.447095 249.287073,189.98142 C249.182032,189.766308 246.121157,183.480964 246.121157,183.480964" id="Fill-225" fill="#292949"></path>
                        <path d="M112.936282,122.010731 C113.304572,121.76711 113.681941,121.54811 114.06536,121.355459 C113.681941,121.54811 113.304572,121.76711 112.936282,122.010731 M88.0844442,178.145572 C88.3208937,179.531708 89.0358617,180.784802 90.0171055,181.801187 C90.0953457,181.323015 90.177044,180.848731 90.2626326,180.377903 C90.177044,180.848731 90.0953457,181.323015 90.0171055,181.801187 C90.651672,182.457323 91.3956018,183.01627 92.1974553,183.444335 C94.2403445,184.536311 96.6087299,184.879282 98.9252435,184.875394 C100.779665,184.87237 102.660022,184.662009 104.470784,185.058542 C106.281979,185.455075 108.07545,186.633873 108.533652,188.429501 C108.786528,189.4204 108.703965,190.664424 109.561149,191.22337 C109.963156,191.485998 110.471069,191.507595 110.950884,191.520986 C112.417562,191.563317 114.083948,191.525305 115.069082,190.43808 C116.594117,188.755193 115.702784,185.379915 117.762964,184.423572 C118.36684,184.143234 119.064085,184.18643 119.720264,184.07585 C122.507516,183.604589 123.870883,180.453495 123.60331,177.560276 C123.54798,176.960725 123.423487,176.371974 123.225942,175.820802 C122.074385,172.61053 119.405575,170.227447 117.384299,167.479364 C113.438575,162.113649 110.770629,154.944098 113.196938,148.59353 C113.425607,147.99614 113.681076,147.396157 113.840582,146.779761 C113.9279,146.44111 113.98712,146.097276 113.993604,145.745666 C114.02905,143.851554 112.618566,142.292205 111.706917,140.631347 C111.621761,140.476276 111.541792,140.312566 111.466145,140.14108 C111.282,139.722518 111.128545,139.255146 111.001891,138.75408 C110.982872,138.678921 110.964284,138.602897 110.946561,138.526441 C108.147639,135.736891 107.026341,130.555619 108.868226,126.682731 C108.973267,126.462867 109.083927,126.247323 109.201503,126.036962 C109.083927,126.247323 108.973267,126.462867 108.868226,126.682731 C107.026341,130.555619 108.147639,135.736891 110.946561,138.526441 C109.921226,134.09072 111.03215,127.081856 114.000521,124.466814 C115.167207,123.438767 116.500747,123.251731 117.987742,123.240933 C118.690607,123.235317 118.925759,123.417169 119.288431,123.353672 C119.451395,123.325163 119.639431,123.24698 119.907868,123.080246 C120.439987,122.748938 120.915048,121.882441 121.164033,121.176199 C122.543394,122.047879 123.546683,123.621483 123.823333,126.01882 C124.124191,128.625222 124.119436,131.374169 123.225509,133.981867 C122.331583,136.589134 120.423993,139.040897 117.948838,140.008903 C117.804894,140.065057 117.661814,140.114731 117.519598,140.16095 C117.642362,140.383406 117.797545,140.60543 117.999846,140.827021 C119.355,142.316826 121.529298,142.66282 123.527231,142.920696 C123.7693,142.951796 124.023905,142.981601 124.251277,142.893483 C124.626484,142.747483 124.818842,142.314234 124.821868,141.912086 C124.824894,141.509938 124.680517,141.124205 124.569425,140.738039 C123.408358,136.697986 125.465512,132.083436 125.809163,128.010122 C126.151086,123.945015 125.311625,119.52182 122.046288,116.773305 C121.492123,116.925353 120.954384,117.133554 120.44042,117.390566 C120.389412,117.322749 120.337108,117.255796 120.282642,117.190572 C115.556246,111.519465 108.882923,116.36727 105.293386,120.698459 C102.334525,124.268116 99.8675834,128.367347 98.735911,132.897666 C97.6777238,137.134258 97.3245624,143.360856 97.7719578,147.691181 C98.0330464,150.219832 99.0341745,152.700968 99.5628358,155.176489 C99.8922225,156.717696 100.039193,158.256743 99.7106708,159.803998 C99.0263937,163.025069 96.4751597,165.38785 93.9840107,167.624933 C93.7570711,168.206341 93.5314282,168.795524 93.3066499,169.393347 C93.0827361,169.991169 92.8592546,170.597199 92.6375021,171.212299 C92.4952866,171.608832 92.3569615,172.011412 92.222959,172.420903 C92.3569615,172.011412 92.4952866,171.608832 92.6375021,171.212299 C92.8592546,170.597199 93.0827361,169.991169 93.3066499,169.393347 C93.5314282,168.795524 93.7570711,168.206341 93.9840107,167.624933 C93.6394947,167.934643 93.2958432,168.241761 92.9586757,168.548447 C90.1839602,171.070619 87.4542004,174.450217 88.0844442,178.145572" id="Fill-227" fill="#292949"></path>
                        <path d="M64.7033486,39.5847467 C57.7494853,34.8038947 50.5665211,36.0893858 45.5167895,38.2085456 C41.8624127,39.7419775 37.738595,39.7082852 34.0768696,38.1916994 C28.9834792,36.0824746 21.6470605,34.773226 14.6417575,39.746297 C5.24948165,46.4139183 3.49534618,58.1716698 5.48679569,68.8512675 C6.96082278,76.7542734 9.77660357,84.9168828 14.458909,91.5922793 C18.9899213,98.0516994 27.595473,104.870072 36.0190408,101.991108 C38.5875654,101.11338 41.3800038,101.078824 43.9230248,102.02696 C56.0990937,106.56635 64.9419595,92.7952675 69.1202427,83.5657349 C73.4835358,73.9284391 76.538792,62.1093503 73.4061602,51.6573917 C71.9338622,46.7430663 68.9330716,42.493084 64.7033486,39.5847467" id="Fill-229" fill="#D67086"></path>
                        <path d="M38.5262268,31.6007497 C39.6215889,28.5693059 41.8953081,25.9369864 44.295249,24.2441639 C46.6956222,22.5517734 49.2278365,21.6839805 51.6913204,21.0429627 C53.8759929,20.474513 56.045536,20.0645899 58.1835236,19.8162172 C57.7205667,21.8062231 56.9303845,23.7875899 56.1030273,25.7374243 C54.9095409,28.550732 53.6075557,31.370087 51.89535,33.9017615 C50.1827121,36.4334361 48.0105754,38.679158 45.6815261,39.7897083 C40.8842379,42.0760337 36.2218167,37.9798266 38.5262268,31.6007497" id="Fill-231" fill="#5D66D3"></path>
                        <polygon id="Fill-233" fill="#474EBB" points="95.2469623 122.438149 40.99412 184.028551 45.3530904 187.862995 99.606365 126.272592"></polygon>
                        <polygon id="Fill-235" fill="#DDDAE8" points="90.8876893 118.603748 36.6344147 180.19415 40.9938174 184.028594 95.247092 122.438192"></polygon>
                        <polygon id="Fill-237" fill="#474EBB" points="86.528373 114.769304 32.2750984 176.359707 36.6345011 180.19415 90.8877757 118.603748"></polygon>
                        <polygon id="Fill-239" fill="#292949" points="44.3180294 189.037863 45.3533065 187.862951 32.2750984 176.35962 31.2398213 177.534531"></polygon>
                        <polygon id="Fill-241" fill="#DEDFDE" points="43.2830982 190.212774 44.3183752 189.037863 31.2401671 177.534531 30.20489 178.709443"></polygon>
                        <polygon id="Fill-243" fill="#292949" points="42.2481236 191.387685 43.2834007 190.212774 30.2051926 178.709443 29.1699155 179.884354"></polygon>
                        <path d="M34.3219644,200.385778 L41.2131491,192.562251 L28.1353733,181.059351 L21.2437563,188.882446 C18.773356,191.687115 19.0461159,195.96215 21.8528191,198.43076 L24.7667243,200.993967 C27.5734275,203.462576 31.8515642,203.190446 34.3219644,200.385778" id="Fill-245" fill="#F0F1F1"></path>
                        <polygon id="Fill-247" fill="#DEDFDE" points="41.2131491 192.56264 42.2484262 191.387728 29.1702181 179.884397 28.134941 181.059308"></polygon>
                        <polygon id="Fill-249" fill="#F8E4B8" points="86.528373 114.769304 99.6065812 126.272636 107.253367 104.415831"></polygon>
                        <polygon id="Fill-251" fill="#292949" points="102.409653 106.835802 105.466206 109.524276 107.253626 104.416004"></polygon>
                        <polygon id="Fill-253" fill="#B97262" points="29.8739472 197.816998 33.6986368 202.193111 35.6416725 200.641105 33.6865334 197.064969 34.9461565 196.756986 31.2165654 193.410649 28.9791565 194.751862"></polygon>
                        <path d="M28.5883448,155.519373 L21.1806022,170.791059 L32.8595653,194.120822 L28.2835973,196.554444 L8.38552833,172.064456 L15.5792993,150.25387 C17.0922303,145.666533 22.6784039,143.93613 26.5225456,146.863905 C29.1840074,148.891059 30.0476749,152.510822 28.5883448,155.519373" id="Fill-255" fill="#353A85"></path>
                        <path d="M25.4255841,126.397729 C27.8488674,119.087362 38.5249733,116.541433 41.0070447,125.03751 C41.7531358,127.591214 42.201828,130.299557 41.6947799,132.910711 C41.1872996,135.521865 39.5909413,138.027191 37.1542578,139.097137 C37.1404252,139.103617 37.1261605,139.108368 37.112328,139.114415 C37.2074265,139.792149 37.302525,140.469451 37.3976235,141.147185 C37.41794,141.292753 37.4356629,141.453871 37.3535324,141.575682 C37.2601629,141.71477 37.0751531,141.751486 36.9095952,141.776108 C36.0995287,141.896622 35.2903267,142.017137 34.4806925,142.138084 C34.0795496,142.197693 33.6615484,142.256439 33.2755349,142.132469 C32.4295903,141.862066 32.0777257,140.849569 32.0409831,139.963202 C32.0319055,139.751114 32.0340669,139.536865 32.0370927,139.322185 C27.2462885,137.68206 23.8417615,131.176421 25.4255841,126.397729" id="Fill-257" fill="#B97262"></path>
                        <path d="M38.4328574,113.914815 C40.3875643,113.624111 42.0522207,115.518656 43.8560667,116.513011 C45.3564621,117.340632 47.0582933,117.560064 48.6135865,118.246005 C50.1684473,118.931946 51.6973722,120.363005 51.7302244,122.154744 C53.3062663,121.33533 55.0132847,120.49475 56.7795236,120.835129 C58.5457626,121.175076 60.1853475,123.282141 59.4811862,125.018591 C58.8513746,126.57362 56.8210212,126.939916 56.1453894,128.471188 C55.0763956,130.892715 57.9656616,134.653727 55.9940963,136.259727 C55.5203328,136.645892 54.8753919,136.739194 54.4098414,137.136591 C53.8310372,137.630744 53.6455951,138.478236 53.3879645,139.232425 C52.2208463,142.649602 48.7735249,144.881502 45.3685655,144.42536 C43.2517589,143.433596 41.5637601,141.386141 40.8068623,139.041934 C39.8952133,136.216531 41.4085766,135.229951 41.6636135,132.577762 C41.9424251,129.67936 41.0199695,126.60904 39.1936456,124.358135 C38.004914,122.893383 36.3043796,121.630354 34.5074498,121.459301 C33.7769202,121.389756 34.0068857,121.998809 33.185148,121.433815 C32.8319867,121.19149 32.3508746,120.274886 32.2505889,119.835159 C34.2173993,118.255076 35.8608746,114.297093 38.4328574,113.914815" id="Fill-259" fill="#292949"></path>
                        <path d="M17.2897759,117.673149 C16.2812993,117.953918 15.1859372,117.912451 14.2254421,118.333605 C12.7825382,118.965983 12.8698559,120.462267 12.4613645,121.762877 C12.0092143,123.202575 11.3513054,125.134699 10.401617,126.253889 C9.71690764,127.060776 8.75857389,127.520806 7.92473276,128.14325 C7.09045936,128.766125 6.32361946,129.685321 6.34134236,130.807102 C6.35820074,131.870137 7.07360099,132.825185 7.17820936,133.886924 C7.30572783,135.470031 7.03167118,136.280374 7.52013177,137.898469 C7.77214286,138.733433 8.05441256,139.61764 8.68119828,140.186954 C9.50769089,140.937256 10.6847512,140.923001 11.7187315,140.75022 C12.7522796,140.577439 13.8208411,140.291054 14.8401244,140.633161 C17.0507328,141.376551 16.6379187,143.610611 17.226665,145.483125 C18.1218879,148.332717 21.4282906,149.996167 23.9579113,148.982806 C26.1028153,148.123652 27.3447155,145.634741 27.2474557,143.178658 C27.1990419,141.948457 26.7088522,140.802054 26.6734064,139.570557 C26.6388251,138.383551 27.3088374,136.73954 26.2316305,135.797451 C25.9696773,135.567652 25.6333744,135.447137 25.3977894,135.185374 C25.2071601,134.973717 25.1012549,134.690356 25.0351182,134.407427 C24.8060172,133.426031 25.0221502,132.355652 25.6005222,131.604918 C26.0167943,131.064546 26.6128892,130.670173 26.8683584,130.018356 C27.1601379,129.272374 26.9288756,128.399398 26.8795973,127.574368 C26.7598596,125.580475 27.8517635,123.625025 29.5133941,122.855285 C30.6087562,122.347741 31.5960517,122.048398 32.5535209,121.276498 C32.6991946,121.159007 34.877383,119.235522 34.9335776,119.65106 C34.8358855,118.927972 34.4131293,118.294729 33.9847537,117.714185 C33.2810246,116.759569 32.4994877,115.830439 31.5074372,115.258534 C28.3013202,113.41064 28.146569,117.705978 25.5728571,117.140551 C24.9521232,117.004486 24.4844113,116.435605 23.9259236,116.096522 C22.87033,115.455072 21.5739643,115.684439 20.4941638,116.16477 C19.4147956,116.645534 18.4257709,117.357392 17.2897759,117.673149" id="Fill-261" fill="#292949"></path>
                    </g>
                </g>
            </g>
        </g>
    </g>
</svg>