<?xml version="1.0" encoding="UTF-8"?>
<svg width="112px" height="108px" viewBox="0 0 112 108" version="1.1" xmlns="http://www.w3.org/2000/svg" xmlns:xlink="http://www.w3.org/1999/xlink">
    <!-- Generator: Sketch 51.3 (57544) - http://www.bohemiancoding.com/sketch -->
    <title>Group</title>
    <desc>Created with Sketch.</desc>
    <defs></defs>
    <g id="Symbols" stroke="none" stroke-width="1" fill="none" fill-rule="evenodd">
        <g id="components/logowhite" transform="translate(-196.000000, -199.000000)" fill="#FFFFFF" fill-rule="nonzero">
            <g id="Group" transform="translate(251.882085, 253.003752) rotate(-77.000000) translate(-251.882085, -253.003752) translate(186.382085, 185.503752)">
                <g id="noun_Flower_1440116" transform="translate(65.463507, 67.654368) scale(-1, 1) rotate(-77.000000) translate(-65.463507, -67.654368) translate(8.963507, 14.154368)">
                    <path d="M70.3316918,104.979612 C60.4075825,107.327388 53.4118467,107.571685 46.3463119,105.8172 C-12.3120235,101.014223 2.47402114,35.8362698 2.47402114,7.01840768 C2.47402114,-12.9939966 33.8120359,16.6243617 37.0261913,19.0258502 C59.5252789,-4.98903488 53.900507,-4.98903488 76.3995945,19.0258502 C80.4172887,15.8238656 110.951765,-12.9939966 110.951765,7.01840768 C110.951765,37.4372622 123.365255,94.5731615 70.3316918,104.979612 Z M28.9908029,80.6640554 C44.2580409,96.6739788 69.167745,96.6739788 85.2385218,80.6640554 C100.50576,65.4546281 96.4880656,42.2402392 96.4880656,21.4273388 C71.5783615,40.6392468 78.0066722,41.439743 57.1146623,19.0258502 C36.2226525,41.439743 41.8474244,40.6392468 16.9377203,21.4273388 C16.9377203,42.2402392 12.9200261,65.4546281 28.9908029,80.6640554 Z" id="Shape"></path>
                </g>
            </g>
        </g>
    </g>
</svg>