<?xml version="1.0" encoding="UTF-8"?>
<svg width="112px" height="123px" viewBox="0 0 112 123" version="1.1" xmlns="http://www.w3.org/2000/svg" xmlns:xlink="http://www.w3.org/1999/xlink">
    <!-- Generator: Sketch 51.3 (57544) - http://www.bohemiancoding.com/sketch -->
    <title>noun_Flower_1440116</title>
    <desc>Created with Sketch.</desc>
    <defs></defs>
    <g id="Symbols" stroke="none" stroke-width="1" fill="none" fill-rule="evenodd">
        <g id="components/logored-copy" transform="translate(-196.000000, -184.000000)" fill="#CCCCCC" fill-rule="nonzero">
            <g id="Group" transform="translate(251.995187, 245.845734) rotate(-77.000000) translate(-251.995187, -245.845734) translate(179.495187, 176.845734)">
                <g id="noun_Flower_1440116" transform="translate(72.771282, 68.967235) scale(-1, 1) rotate(-77.000000) translate(-72.771282, -68.967235) translate(16.271282, 7.967235)">
                    <path d="M70.3316918,119.979612 C60.4075825,122.327388 53.4118467,122.571685 46.3463119,120.8172 C-12.3120235,116.014223 2.47402114,50.8362698 2.47402114,22.0184077 C2.47402114,2.00600341 29.3101318,26.0244767 32.5242871,28.4259652 C43.7972508,16.3935248 52.5118485,-0.0102853519 56.7392404,0.0147644634 C60.9490673,0.0397101952 70.2981633,16.4435204 81.5242871,28.4259652 C85.5419813,25.2239805 110.951765,2.00600341 110.951765,22.0184077 C110.951765,52.4372622 123.365255,109.573161 70.3316918,119.979612 Z" id="Shape"></path>
                </g>
            </g>
        </g>
    </g>
</svg>